<?xml version="1.0" encoding="UTF-8"?>
<svg id="Layer_2" data-name="Layer 2" xmlns="http://www.w3.org/2000/svg" viewBox="0 0 597.89 600">
  <defs>
    <style>
      .cls-1 {
        fill: #fff;
      }

      .cls-2 {
        fill: #333;
      }

      .cls-3 {
        fill: #faa000;
      }

      .cls-4 {
        fill: none;
      }
    </style>
  </defs>
  <g id="Layer_1-2" data-name="Layer 1">
    <g>
      <g>
        <g>
          <g id="leaves">
            <path class="cls-2" d="m182,512.36c-.25.56-1.06.52-1.26-.06-2.41-7-9.73-35.54,21.73-56.92,36.11-24.55,35.11-38.4,37.68-37.82s21.27,68.06-46.32,96.03c-.41.17-.87-.09-.94-.52-.5-3.16-1.4-14.64,9.44-24.56,0,0-13.74,9.27-20.33,23.87Z"/>
            <path class="cls-2" d="m146.59,505.11s-4.6-16.73,2.78-24.91c6.17-6.84,13.79-13.87,14.21-18.54.02-.21.3-.28.39-.09,2.26,4.63,12.58,28.65-7.86,43.53,0,0-3.43-6.82-.96-11.42,0,0-2.68.79-8.56,11.42Z"/>
            <path class="cls-2" d="m115.08,466.35c-.34.41-1.01.22-1.08-.31-.64-4.4-.9-18.84,20.67-27.94,25.69-10.85,34.54-32.69,34.54-32.69,0,0,1-1.71,1.86.57.85,2.27,7.18,66.74-48.3,66.67-.72,0-1.23-.7-1.03-1.38,1.01-3.52,4.49-12.91,13.79-17.04,0,0-9.77-.54-20.44,12.13Z"/>
            <path class="cls-2" d="m72.98,408.09c-.66.28-1.33-.36-1.07-1.03,2.11-5.32,10.2-20.65,32.78-18.64,25.59,2.28,33.07,5.18,39.79,1.87.39-.19.79.22.57.59-4.16,7.08-25.8,39.58-65.63,25.43-.36-.13-.58-.49-.53-.87.28-2.09,2.28-8.62,16.08-11.41,0,0-6.39-2.73-22.01,4.04Z"/>
            <path class="cls-2" d="m59.23,374.44s6.42-16.7,22.27-21.84c14.71-4.77,26.62-7.7,31.35-11.35.32-.25.78.05.68.45-1.59,6.68-10.68,36.68-45.3,37.45,0,0,3-6.35,9.14-8.85,0,0-9.63-.71-18.13,4.14Z"/>
            <path class="cls-2" d="m50.99,311.7s13.6-25.91,47.32-18.95c33.72,6.96,30.62,12.95,48.6,6.21,0,0-31.79,51.49-87.67,18.09,0,0,8.14-8.28,26.33-6.42,0,0-16.63-6.35-34.58,1.07Z"/>
            <path class="cls-2" d="m54.84,252.4s6.1-15.31,28.26-16.7c22.16-1.39,28.9-1.5,38-10.06,0,0,6.38,25.21-25.26,39.18-23.77,10.49-37.9-6.21-37.9-6.21,0,0,8.4-7.92,20.82-6.53,0,0-8.56-5.51-23.93.32Z"/>
            <path class="cls-2" d="m104.62,144.7s29.5-4.65,39.93,29.87c5.89,19.48,16.06,25.69,16.06,25.69,0,0-42.29,6.53-54.7-46.35,0,0,11.03,4.5,15.09,10.81,0,0-5.25-10.28-16.38-20.02Z"/>
            <path class="cls-2" d="m154.22,172.51s11.83-20.48,31.97-11.89c9.71,4.14,20.98,12.13,32.54,10.42,0,0-25.91,28.12-58.13,7.56,0,0,4.03-5.42,12.31-5.28,0,0-5.57-3.77-18.7-.82Z"/>
            <path class="cls-2" d="m260.42,479.92s-6.28-17.56,7.85-24.55,21.84-15.42,21.98-17.27c0,0,13.27,34.68-22.98,42.82,0,0-2-7.56,3-13.27,0,0-6.28,3-9.85,12.28Z"/>
            <path class="cls-2" d="m265.98,548.43s-5.14-13.7,6.28-24.41c11.42-10.71,16.81-20.69,16.84-29.4,0,0,35.26,42.96-16.13,55.38,0,0-.71-6.71,4.85-14.7,0,0-8.14,4.28-11.85,13.13Z"/>
            <path class="cls-2" d="m328.65,485.06s49.1-4.42,61.95,44.82c0,0-17.27-2.57-19.7-9.85,0,0,1,9.56,17.27,20.27,0,0-21.68,6.36-39.97-32.54-7.85-16.7-19.55-22.69-19.55-22.69Z"/>
            <path class="cls-2" d="m380.17,484.95s-58.24-18.4-34.54-65.1c0,0-3,9.68,20.41,23.1,23.41,13.42,20.84,39.39,20.84,39.39,0,0-9.71-15.41-15.56-16.77,0,0,8.42,12.85,8.85,19.38Z"/>
            <path class="cls-2" d="m399.87,438.1s6.85,11.13,21.98,19.55c15.13,8.42,25.83,32.54,13.56,48.24,0,0-6.85-1.57-11.99-14.56,0,0-.14,12.13,6.85,19.27,0,0-33.56-3.37-28.98-47.96,1.37-13.29-1.43-24.55-1.43-24.55Z"/>
            <path class="cls-2" d="m499.36,442.09s-69.65,15.7-63.66-45.39c0,0,4.57,12.85,33.4,18.7,28.83,5.85,28.69,15.7,28.69,15.7,0,0-9.85,3.43-18.98-.86,0,0,4.14,6.99,20.55,11.85Z"/>
            <path class="cls-2" d="m547.89,364.59s-7.56,41.39-61.66,32.12c0,0,10.72-7.26,16.55-18.7,3.43-6.71,13.13-30.26,39.25-20.41,0,0-3.92,5.12-9.46,8.86,4.42-1.73,10.28-3.22,15.31-1.87Z"/>
            <path class="cls-2" d="m547.03,326.05s-15.61-28.6-57.52-5.28c-21.55,11.99-34.26,7.71-34.26,7.71,0,0,13.46,24.86,45.1,25.83s45.68-23.55,45.68-23.55c0,0-23.55-5.57-37.4-.71,0,0,14.84-11.28,38.4-4Z"/>
            <path class="cls-2" d="m135.67,110.02s7.07-15.63,26.33-13.06c19.27,2.57,25.69,21.84,49.24,24.19,0,0-32.12,26.76-69.37-3,0,0,6.42-5.29,15.63-3.72,0,0-6.42-5.71-21.84-4.42Z"/>
            <path class="cls-2" d="m181.91,79.19s14.77-18.63,34.26-14.56c18.94,3.95,36.66,20.04,56.12,13.08.71-.25,1.4.41,1.17,1.13-2.49,7.88-14.64,38.81-50.22,32.47-21.62-3.85-20.13-16.7-37.9-21.62,0,0,10.49-6.64,32.12,1.28,0,0-24.19-13.7-35.54-11.78Z"/>
            <path class="cls-2" d="m523.84,201.87s-28.26,16.7-29.55,44.96c-1.28,28.26-12.63,36.4-12.63,36.4,0,0,37.51,8.09,50.96-33.4,7.49-23.12-2.14-41.11-2.14-41.11,0,0-14.77,15.84-14.77,21.62,0,0,2.36-19.91,8.14-28.48Z"/>
            <path class="cls-2" d="m476.95,211.5s-19.27.21-24.41,14.56c-4.28,11.96-7.52,17.67-11.09,19.48-.4.2-.29.79.16.81,7.3.22,29.46-1.44,35.33-28.86,0,0-6.07.5-11.56,7.14,0,0,5.99-9.71,11.56-13.13Z"/>
            <path class="cls-2" d="m498.64,153.34s-38.8-5.65-64.52,24.26c-10,11.64-17.53,14.37-21,14.98-.64.11-.79.97-.22,1.3,10.1,5.76,58.15,28.95,88.24-30.83,0,0-10.78-1.43-34.18,11.13,0,0,13.13-11.99,31.69-20.84Z"/>
            <path class="cls-2" d="m429.63,96.96s-4.71,7.71-8.14,19.91c-3.43,12.2-3.64,19.06-11.13,25.05,0,0,46.67-2.78,26.98-47.53,0,0-2.78,20.13-7.92,23.77,0,0,3-11.56.21-21.2Z"/>
            <path class="cls-2" d="m352.34,64.05s-11.78,15.35,0,51.11c11.78,35.76,14.99,45.18,13.06,56.95,0,0,59.31-52.46-2.36-111.83,0,0-2,13.7,2,29.97,0,0-5.71-21.29-12.7-26.2Z"/>
            <path class="cls-2" d="m321.37,51.43s-12.48,8.06-20.73,36.68c-2.12,7.37-13.16,16.8-17.64,20.38-.6.48-.22,1.43.54,1.39,12.03-.64,64.25-6.47,49.82-59.87,0,0-11.99,7.26-12.28,14.05,0,0-1.71-7.77.29-12.62Z"/>
          </g>
          <g id="berries">
            <ellipse class="cls-3" cx="228.56" cy="511.24" rx="14.14" ry="9.83" transform="translate(-225 182.77) rotate(-30)"/>
            <ellipse class="cls-3" cx="410.37" cy="168.22" rx="14.14" ry="14.73" transform="translate(-29.13 227.72) rotate(-30)"/>
            <ellipse class="cls-3" cx="407.92" cy="91.79" rx="9.92" ry="10.33" transform="translate(8.76 216.26) rotate(-30)"/>
            <ellipse class="cls-3" cx="334.27" cy="116.91" rx="7.93" ry="8.26" transform="translate(-13.67 182.8) rotate(-30)"/>
            <ellipse class="cls-3" cx="284.03" cy="64.05" rx="6.87" ry="7.16" transform="translate(6.03 150.6) rotate(-30)"/>
            <ellipse class="cls-3" cx="249.72" cy="65.96" rx="8.13" ry="6.69"/>
            <ellipse class="cls-3" cx="352.12" cy="137.89" rx="4.02" ry="4.19" transform="translate(-21.77 194.53) rotate(-30)"/>
            <ellipse class="cls-3" cx="459.08" cy="140.1" rx="9.82" ry="10.23" transform="translate(-8.55 248.31) rotate(-30)"/>
            <ellipse class="cls-3" cx="493.9" cy="208.19" rx="6.38" ry="6.64" transform="translate(-37.92 274.84) rotate(-30)"/>
            <ellipse class="cls-3" cx="504.89" cy="189.35" rx="4.69" ry="4.89" transform="translate(-27.03 277.81) rotate(-30)"/>
            <ellipse class="cls-3" cx="526.84" cy="290.5" rx="10.99" ry="11.45" transform="translate(-74.66 302.34) rotate(-30)"/>
            <circle class="cls-3" cx="256.85" cy="521.17" r="3.71"/>
            <ellipse class="cls-3" cx="266.93" cy="501.47" rx="7.9" ry="6.28"/>
            <ellipse class="cls-3" cx="322.86" cy="501.47" rx="8.06" ry="7.56"/>
            <circle class="cls-3" cx="453.9" cy="465.86" r="8.78"/>
            <circle class="cls-3" cx="467.34" cy="388.24" r="8.78"/>
            <ellipse class="cls-3" cx="403.46" cy="513.62" rx="4.47" ry="4.19"/>
            <ellipse class="cls-3" cx="491.52" cy="411.56" rx="4.47" ry="4.19"/>
            <ellipse class="cls-3" cx="386.6" cy="506.41" rx="3.12" ry="2.93"/>
            <ellipse class="cls-3" cx="306.21" cy="542.58" rx="6.45" ry="5.42"/>
            <ellipse class="cls-3" cx="343.99" cy="537.3" rx="6.07" ry="4.57"/>
            <ellipse class="cls-3" cx="126.41" cy="365.93" rx="12.04" ry="9.05" transform="translate(-259.13 330.75) rotate(-65.73)"/>
            <ellipse class="cls-3" cx="79.31" cy="208.33" rx="10.07" ry="8.67" transform="translate(-143.21 195) rotate(-65.73)"/>
            <ellipse class="cls-3" cx="104.62" cy="219.74" rx="10.07" ry="8.67" transform="translate(-138.7 224.79) rotate(-65.73)"/>
            <ellipse class="cls-3" cx="94.46" cy="174.73" rx="7.23" ry="6.22" transform="translate(-103.65 189.02) rotate(-65.73)"/>
            <circle class="cls-3" cx="150.86" cy="141.53" r="8.83"/>
            <circle class="cls-3" cx="56.82" cy="336.91" r="6.82"/>
            <circle class="cls-3" cx="100.29" cy="274.1" r="5.83"/>
            <circle class="cls-3" cx="61.65" cy="276.35" r="4.97"/>
            <circle class="cls-3" cx="82.63" cy="284.27" r="3.52"/>
            <circle class="cls-3" cx="103.5" cy="434.22" r="8.3"/>
            <ellipse class="cls-3" cx="484.15" cy="365.94" rx="5.5" ry="5.07"/>
            <circle class="cls-3" cx="490.66" cy="411.13" r="4.63"/>
          </g>
        </g>
        <g id="bee">
          <path class="cls-1" d="m334.52,339.92c-.13,4.15-.29,8.77-1.76,12.6-2.1,3.25-4.86,6.06-7.49,8.91-2.87,3.03-5.43,6.28-8.23,9.32-2.75,3.03-5.59,6-8.65,8.7-2.79,2.43-5.95,4.98-9.43,6.05-3.47-1.06-6.63-3.61-9.43-6.05-3.06-2.69-5.9-5.67-8.65-8.7-2.8-3.04-5.37-6.3-8.23-9.32-2.62-2.84-5.38-5.66-7.49-8.91-1.48-3.82-1.64-8.44-1.76-12.6,0-3.95-.04-8.09,2.64-11.17,4.32-6.35,9.58-12.06,13.38-18.79,1.05,1.07,2.17,2.09,3.35,3.03,4.34,3.42,9.94,5.88,15.41,6.73.52.08,1.04.08,1.56,0,5.48-.85,11.07-3.3,15.41-6.73,1.17-.95,2.3-1.96,3.35-3.04,3.79,6.74,9.05,12.45,13.38,18.8,2.68,3.08,2.64,7.22,2.64,11.17Z"/>
          <path class="cls-1" d="m270.73,290.77c-.06.49-.29,1.52-.3,2-.04,1.14.27,2.35.59,3.45-4.39-.12-8.78-.46-13.07-1.31-9.86-1.72-18.19-7.5-27.49-10.94-4.68-1.79-9.56-3.04-14.41-4.15-16.23-3.56-25.32-12.18-30.89-27.7-1.54-4.54-4.41-8.85-4.99-13.68-.13-1.32-.27-3.46.07-5.3.29-1.58.93-2.94,2.25-3.35.7-.23,2.64-.45,3.45-.61,8.45-1.18,17.17-1.59,25.67-1.01,5.96.84,11.32,3.86,16.45,7.08,8.23,5.32,15.77,11.77,23.03,18.46,3.62,3.35,7.15,6.8,10.67,10.3,3.39,3.68,8.26,7.26,13.56,6.05-1.8,5.56-2.83,11.22-3.87,16.92-.23,1.27-.46,2.52-.7,3.79Z"/>
          <path class="cls-1" d="m278.28,308.77c-2.58,2.32-4.76,4.96-6.86,7.66-.7-.22-1.64-.34-2.46-.38h0c-.25-.02-.49-.03-.7-.02-2.7.1-6.12,1.59-7.93,2.73-17.23,8.34-33.06-1.23-47.31-10.87-6.16-4.42-12.87-8.35-20.18-10.48-2.43-.75-4.9-1.34-7.3-1.95-1.64-.47-3.42-.76-4.65-1.82-.54-.62-.52-1.35-.29-2.12.18-.62.5-1.27.76-1.91,3.83-7.45,12.07-11.3,19.9-13.39.07.04.14.08.21.12,8.75,5.15,19.1,5.52,28.41,9.07,9.31,3.31,17.89,9.01,27.82,10.59,4.49.82,9.04,1.09,13.58,1.13.16.47.33.92.52,1.38,1.5,3.79,3.72,7.24,6.46,10.25Z"/>
          <path class="cls-1" d="m417.74,238.45c-.58,4.83-3.45,9.14-4.98,13.68-5.58,15.51-14.67,24.14-30.9,27.7-4.85,1.11-9.72,2.36-14.4,4.15-9.31,3.45-17.63,9.22-27.5,10.94-4.29.85-8.67,1.18-13.06,1.31.31-1.11.62-2.31.59-3.45-.02-.49-.24-1.52-.31-2-1.32-6.99-2.37-13.93-4.58-20.71,5.29,1.22,10.17-2.37,13.56-6.05,10.49-10.38,21.35-20.7,33.7-28.75,5.13-3.22,10.5-6.24,16.45-7.08,3.57-.31,7.37-.26,10.99-.2,6.05.18,12.23.64,18.14,1.82.84.29,1.53.96,1.81,1.81.65,2.12.8,4.55.49,6.85Z"/>
          <path class="cls-1" d="m417.43,292.69c-.03.41-.16.7-.44.98-1.21,1.05-3,1.35-4.64,1.81-2.4.6-4.86,1.2-7.3,1.95-7.3,2.13-14.02,6.06-20.18,10.48-14.26,9.64-30.06,19.2-47.31,10.86-2.52-1.49-7.53-3.29-11.1-2.35-2.09-2.7-4.27-5.33-6.84-7.65,3.06-3.37,5.49-7.29,6.99-11.62,4.53-.05,9.08-.32,13.57-1.13,9.94-1.58,18.52-7.29,27.82-10.59,4.62-1.69,9.4-2.83,14.23-3.88,5.54-1.17,10.3-2.92,14.41-5.32,4.5,1.17,8.89,2.99,12.71,5.54,3.67,2.55,7.49,6.41,8.08,10.92Z"/>
          <path class="cls-3" d="m324.08,365.62l-8.65,10.66c-12.65,2.17-23.64,1.69-31.44.68l-10.24-10.43,1.79-.91s23.23,7.59,48.54,0Z"/>
          <path class="cls-3" d="m262.4,345.62s36.11,14.05,72.8,0v6.81l-4.13,4.7s-29.8,8.01-65.33,0l-3.35-11.52Z"/>
          <path class="cls-3" d="m265.38,328.51s33.89,13.22,66.78-.31l2.47,3.05,1.53,5.44s-26.83,17.5-73.45.99c0,0-.31-1.45-.31-1.57v-4.82l2.98-2.79Z"/>
          <path class="cls-3" d="m268.97,316.05c-.25,0-.48-.02-.7,0-2.69.1-6.12,1.59-7.93,2.73-17.23,8.33-33.07-1.23-47.31-10.87-6.15-4.42-12.87-8.35-20.18-10.48-2.42-.75-4.89-1.35-7.29-1.95-1.63-.47-3.42-.76-4.64-1.81-.54-.63-.52-1.36-.29-2.13,1.63.85,6.28,3.11,10.81,3.57,5.61.57,21.32,5.73,24.3,10.43,2.98,4.71,19.49,6.3,28.67,11.35,9.17,5.05,23.97-3.83,24.56-.84Z"/>
          <path class="cls-3" d="m328.94,316.05c.25,0,.48-.02.7,0,2.69.1,6.12,1.59,7.93,2.73,17.23,8.33,33.07-1.23,47.31-10.87,6.15-4.42,12.87-8.35,20.18-10.48,2.42-.75,4.89-1.35,7.29-1.95,1.63-.47,3.42-.76,4.64-1.81.54-.63.52-1.36.29-2.13-1.63.85-6.28,3.11-10.81,3.57-5.61.57-21.32,5.73-24.3,10.43-2.98,4.71-19.49,6.3-28.67,11.35-9.17,5.05-23.97-3.83-24.56-.84Z"/>
          <path class="cls-3" d="m270.42,292.78c-.04,1.14.27,2.34.59,3.45-4.4-.12-8.78-.46-13.08-1.3-9.86-1.72-18.19-7.5-27.49-10.95-4.68-1.79-9.56-3.04-14.41-4.15-16.24-3.57-25.32-12.18-30.89-27.7-1.54-4.54-4.41-8.85-4.98-13.68-.13-1.33-.27-3.47.06-5.3,1.27,5.41,4.98,18.56,12.92,28.27,10.25,12.51,18.09,14.65,26.39,16.18,8.31,1.53,28.33,5.34,31.69,8.41,2.72,2.47,15.42,1.45,20.19.96-.23,1.27-.46,2.52-.7,3.79-.06.49-.3,1.52-.31,2.01Z"/>
          <path class="cls-3" d="m327.48,292.78c.04,1.14-.27,2.34-.59,3.45,4.4-.12,8.78-.46,13.08-1.3,9.86-1.72,18.19-7.5,27.49-10.95,4.68-1.79,9.56-3.04,14.41-4.15,16.24-3.57,25.32-12.18,30.89-27.7,1.54-4.54,4.41-8.85,4.98-13.68.13-1.33.27-3.47-.06-5.3-1.27,5.41-4.98,18.56-12.92,28.27-10.25,12.51-18.09,14.65-26.39,16.18-8.31,1.53-28.33,5.34-31.69,8.41-2.72,2.47-15.42,1.45-20.19.96.23,1.27.46,2.52.7,3.79.06.49.3,1.52.31,2.01Z"/>
          <path class="cls-2" d="m315.99,241.77c-.09-.48-.2-.96-.32-1.43-.29-1.13-.64-2.24-1.06-3.31-1.12-2.42-2.81-4.35-4.79-5.95-.39-.32-.78-.62-1.19-.91-1.3-.93-2.69-1.74-4.11-2.47-1.56-.78-3.15-1.44-4.8-1.98-.25-.09-.51-.18-.77-.24-.26.07-.52.15-.77.24-1.65.54-3.25,1.2-4.81,1.98-1.41.72-2.81,1.53-4.11,2.47-.4.29-.81.59-1.18.9-1.97,1.6-3.66,3.55-4.8,5.96-.42,1.07-.77,2.18-1.06,3.31-.12.48-.23.96-.32,1.43-.72,3.77-.61,7.69.68,11.35,1.32,2.45,3.32,4.48,5.67,5.99.39.24.78.47,1.18.69,2.91,1.58,6.25,2.36,9.5,2.18h.02c3.25.18,6.59-.6,9.5-2.18.4-.22.8-.44,1.18-.69,2.35-1.51,4.34-3.54,5.67-5.99,1.29-3.66,1.4-7.58.68-11.35Zm-4.49,9.83c-1.22,2.2-4.17,4.8-6.92,5.89-1.75.71-3.66,1.12-5.63,1.2h-.02c-1.97-.08-3.87-.49-5.62-1.2-2.76-1.09-5.69-3.69-6.93-5.89-1.26-3.75-.82-7.98,0-11.83,1.48-5.84,7.25-9.42,12.55-12.04,5.31,2.62,11.08,6.2,12.55,12.04.82,3.85,1.26,8.08,0,11.83Z"/>
          <path class="cls-1" d="m311.51,251.6c-1.22,2.2-4.17,4.8-6.92,5.89-1.75.71-3.66,1.12-5.63,1.2h-.02c-1.97-.08-3.87-.49-5.62-1.2-2.76-1.09-5.69-3.69-6.93-5.89-1.26-3.75-.82-7.98,0-11.83,1.48-5.84,7.25-9.42,12.55-12.04,5.31,2.62,11.08,6.2,12.55,12.04.82,3.85,1.26,8.08,0,11.83Z"/>
          <path class="cls-1" d="m323.36,292.35c.03.89-.58,1.84-.91,2.65-2.76,5.16-6.57,9.79-10.86,13.74-3.78,3.35-7.97,5.89-12.64,8.01-4.66-2.12-8.86-4.65-12.64-8.01-4.29-3.96-8.1-8.59-10.86-13.74-.34-.81-.95-1.76-.91-2.65.12-6.99,1.03-14.15,2.61-20.95,1.12-5.25,7.37-9.01,12.29-11.61,2.91,1.58,6.25,2.36,9.5,2.18h.02c3.25.18,6.59-.6,9.5-2.18,4.92,2.61,11.17,6.36,12.29,11.61,1.58,6.8,2.49,13.96,2.61,20.95Z"/>
          <path class="cls-2" d="m327.49,292.77c.03,1.15-.28,2.35-.59,3.45-.05.18-.1.34-.15.51-.04.13-.09.28-.14.41-1.49,4.34-3.92,8.25-6.99,11.62-.36.4-.74.8-1.12,1.18-1.06,1.07-2.18,2.09-3.35,3.04-4.34,3.42-9.93,5.88-15.41,6.73-.52.08-1.04.08-1.56,0-5.48-.85-11.07-3.3-15.41-6.73-1.17-.94-2.3-1.95-3.35-3.03-.39-.39-.77-.78-1.13-1.19-2.73-3.01-4.96-6.46-6.46-10.25-.19-.45-.36-.91-.52-1.38-.06-.13-.1-.27-.15-.41-.04-.18-.09-.34-.14-.51-.32-1.11-.63-2.31-.59-3.45,0-.49.24-1.52.3-2,.24-1.27.47-2.52.7-3.79,1.04-5.7,2.07-11.36,3.87-16.92.06-.16.11-.34.17-.49.28-.7.64-1.36,1.06-1.98.18-.28.38-.54.59-.8.15-.2.31-.39.49-.58.23-.28.49-.54.75-.78,1.04-1.03,2.21-1.93,3.37-2.73,2.07-1.41,4.27-2.59,6.54-3.6.85-.38,1.69-.73,2.56-1.06l.34.84c-.55.29-1.12.58-1.71.91-4.92,2.61-11.17,6.36-12.29,11.61-1.58,6.8-2.49,13.96-2.61,20.95-.03.89.58,1.84.91,2.65,2.76,5.16,6.57,9.79,10.86,13.74,3.78,3.35,7.97,5.89,12.64,8.01,4.66-2.12,8.86-4.65,12.64-8.01,4.29-3.96,8.1-8.59,10.86-13.74.34-.81.95-1.76.91-2.65-.12-6.99-1.03-14.15-2.61-20.95-1.12-5.25-7.37-9.01-12.29-11.61-.6-.33-1.17-.62-1.71-.91l.34-.84c.86.33,1.72.68,2.56,1.06,2.28,1.01,4.47,2.19,6.54,3.6,1.17.8,2.35,1.7,3.39,2.74.25.23.49.49.74.75.16.19.33.39.49.59.21.25.4.52.59.79.42.62.78,1.28,1.06,1.99.06.17.11.33.16.49,2.21,6.78,3.25,13.72,4.58,20.71.07.49.29,1.52.31,2Z"/>
          <path class="cls-2" d="m337.06,339.97c-.15,1.99-.23,3.97-.4,5.93-.03.34-.05.68-.09,1.01-.25,2.32-.67,4.62-1.56,6.88-.31.55-.75,1.25-1.2,1.98-.19.31-.39.62-.58.92-.44.71-.86,1.39-1.17,1.94-5.31,9.36-12.36,17.55-20.7,24.39-3.19,2.42-6.73,4.77-10.79,5.69-1.06.24-2.16.24-3.22,0-4.06-.92-7.6-3.27-10.79-5.69-8.34-6.83-15.38-15.03-20.69-24.39-.32-.55-.74-1.22-1.18-1.93-.19-.31-.39-.63-.59-.95-.45-.72-.88-1.42-1.19-1.96-.88-2.25-1.31-4.55-1.56-6.87h0c-.04-.35-.07-.68-.09-1.02-.18-1.96-.25-3.94-.4-5.93-.03-3.78-.38-8.03,1.85-11.41.02-.02.03-.04.04-.06.21-.34.41-.66.63-.99,2.24-3.49,4.72-6.78,7.25-10.05.16-.2.31-.4.47-.6.11-.14.22-.28.33-.42,2.1-2.71,4.28-5.34,6.86-7.66.46-.42.94-.83,1.43-1.22l.7.57c-.32.63-.65,1.24-1,1.84-3.8,6.73-9.06,12.44-13.38,18.79-2.68,3.08-2.64,7.22-2.64,11.17.13,4.15.29,8.77,1.76,12.6,2.11,3.25,4.86,6.06,7.49,8.91,2.87,3.03,5.43,6.28,8.23,9.32,2.75,3.03,5.59,6,8.65,8.7,2.79,2.43,5.95,4.98,9.43,6.05,3.48-1.06,6.64-3.61,9.43-6.05,3.05-2.69,5.9-5.67,8.65-8.7,2.8-3.04,5.37-6.3,8.23-9.32,2.62-2.84,5.38-5.66,7.49-8.91,1.48-3.82,1.64-8.44,1.76-12.6,0-3.95.04-8.09-2.64-11.17-4.33-6.35-9.58-12.06-13.38-18.8-.35-.6-.68-1.22-1-1.84l.7-.57c.49.39.96.8,1.43,1.22,2.57,2.31,4.75,4.95,6.84,7.65.12.14.23.29.34.44.18.23.37.48.55.71,2.51,3.23,4.96,6.49,7.17,9.95.22.33.42.65.63.99.02.02.03.04.04.06,2.23,3.39,1.88,7.63,1.85,11.41Z"/>
          <path class="cls-2" d="m275.54,270c-.08.03-.16.04-.23.06-5.3,1.21-10.17-2.37-13.56-6.05-3.52-3.5-7.05-6.95-10.67-10.3-7.26-6.69-14.8-13.13-23.03-18.46-5.13-3.22-10.49-6.24-16.45-7.08-8.5-.58-17.22-.17-25.67,1.01-.8.16-2.75.38-3.45.61-1.32.41-1.96,1.77-2.25,3.35-.34,1.84-.19,3.97-.07,5.3.58,4.83,3.45,9.14,4.99,13.68,5.58,15.52,14.66,24.13,30.89,27.7,4.85,1.11,9.73,2.36,14.41,4.15,9.3,3.45,17.63,9.22,27.49,10.94,4.29.85,8.68,1.19,13.07,1.31.55.02,1.09.03,1.63.03v.9c-.44,0-.89,0-1.33,0-4.54-.04-9.08-.31-13.58-1.13-9.94-1.58-18.52-7.28-27.82-10.59-9.31-3.56-19.66-3.92-28.41-9.07-.07-.04-.14-.08-.21-.12-.43-.23-.85-.48-1.26-.73h0c-8.32-5.12-13.48-13.61-16.85-22.6-.92-2.31-1.83-4.56-2.91-6.76-2.21-4.51-3.24-9.71-1.96-14.69.05-.2.1-.39.17-.6.49-1.52,1.74-2.77,3.25-3.28,1.28-.36,2.62-.5,3.86-.71,7.45-1.11,14.95-1.46,22.47-1.3,15.55-.31,33.6,16.39,44.75,26.26,3.66,3.37,7.25,6.84,10.77,10.33,3.25,3.37,7.01,6.5,11.84,6.96l.08.44.07.44Z"/>
          <path class="cls-2" d="m271.61,316.49l-.13.89c-.25.03-.55.06-.86.08-.65.06-1.38.13-1.94.24-.07.02-.13.03-.18.04-2.51.66-5.01,1.69-7.23,3.04-2.17,1.1-4.32,1.92-6.44,2.51-.41.11-.81.22-1.22.31-17.65,4.13-33.82-7.86-48.22-17.72-4.15-2.62-8.62-4.65-13.28-6.18-3.57-1.26-7.29-1.82-10.88-3.29-2.52-1-3.09-2.82-2.76-4.78.4-2.21,1.99-4.59,3.3-6.17,3.33-4.01,7.95-6.62,12.75-8.35,1.79-.65,3.61-1.19,5.47-1.6h0c.61-.13,1.23-.26,1.86-.36l.15.89c-.25.07-.5.13-.75.2-7.83,2.1-16.07,5.94-19.9,13.39-.26.64-.59,1.29-.76,1.91-.23.77-.25,1.5.29,2.12,1.22,1.06,3.01,1.35,4.65,1.82,2.4.6,4.86,1.2,7.3,1.95,7.3,2.13,14.02,6.06,20.18,10.48,14.25,9.64,30.08,19.2,47.31,10.87,1.81-1.14,5.23-2.63,7.93-2.73.21,0,.44,0,.7,0h0c.81.05,1.75.17,2.46.39.07,0,.13.03.18.05Z"/>
          <path class="cls-2" d="m270.4,306.68c-5.58.23-11.14-.07-16.69-.76-4.2-.6-8.44-1.24-12.42-2.9-8.62-4.33-17.28-8.75-26.36-12.04-2.47-.8-5.23-1.88-7.79-1.63,0,0-.22-.87-.22-.87,2.96-.56,5.67.42,8.45,1.13,8.67,2.64,16.95,6.39,25.07,10.39,1.74.96,3.59,1.6,5.57,2.08,8.01,1.86,16.26,2.5,24.44,3.7,0,0-.04.9-.04.9h0Z"/>
          <path class="cls-2" d="m237.6,299.84c-4.76,2.54-10.22,4.18-15.66,3.94-.8-.1-1.64-.24-2.4-.71l.41-.8c1.26.4,2.77.2,4.2-.02,2.94-.48,5.82-1.38,8.7-2.18,1.45-.4,2.92-.79,4.42-1.08l.33.84h0Z"/>
          <path class="cls-2" d="m271.92,283.28c-7.62-4.6-15.79-8.33-24.22-11.16-2.82-.97-5.65-1.54-8.62-2.64-8.87-3.24-14.79-10.7-20.35-17.82-1.8-2.1-3.75-4.7-6.58-5.19,0,0,.07-.9.07-.9.82.05,1.62.3,2.34.64,2.09,1.07,3.7,2.84,5.25,4.51,3.92,4.47,7.62,9.14,12.39,12.67,3.54,2.71,7.5,4.36,11.81,5.45,4.35,1.26,8.62,2.83,12.76,4.68,5.48,2.53,10.79,5.42,15.67,9.01l-.52.73h0Z"/>
          <path class="cls-2" d="m253.28,273.55c-2.13-1.6-3.88-3.68-5.04-6.09-1.58-4.24-2.75-7.29-7.29-8.97,0,0,.24-.86.24-.86,3.73.41,6.75,3.22,7.95,6.69.64,1.64,1.09,3.03,1.98,4.49.81,1.4,1.77,2.77,2.77,4.1l-.61.66h0Z"/>
          <path class="cls-2" d="m227.29,260.72c-3.96,1.74-8.42,2.54-12.74,2.13-.64-.12-1.33-.25-1.95-.78l.56-.71c.91.39,2.2.22,3.23.13,2.04-.21,5.01-.82,7.06-1.2,1.19-.2,2.39-.38,3.61-.44l.23.87h0Z"/>
          <path class="cls-1" d="m270.62,317.46c-2.53,3.27-5.01,6.57-7.25,10.05-1.61-.23-3.3.16-4.74.9-1.73.9-3.15,2.12-4.39,3.63-1.3,2.89-2.95,6.07-6.27,5.95-.78.07-1.38.55-1.51,1.35-.65,2.59-2.87,4.58-5.24,5.65-.7.31-1.44.54-2.19.66-1.09.2-1.8.99-2.36,1.81-2.53,4.33-3.24,9.28-3.99,14.13-.88-.08-1.7-.14-2.56-.36-.83-.2-1.68-.53-2.47-.89,1.9-5.53,3.19-11.36,7.36-15.59,2.36-2.53,5.48-4.18,8.48-5.88,5.52-3.52,10.1-9.06,11.36-15.59,2.12-.59,4.27-1.41,6.44-2.51,2.21-1.34,4.72-2.37,7.23-3.04.05-.02.11-.03.18-.04.56-.12,1.28-.18,1.94-.24Z"/>
          <path class="cls-2" d="m264.21,327.68l-.18.88c-.44-.04-.89-.04-1.32,0-2.8.28-5.27,2.25-7.04,4.35-.69,1.53-1.47,3.03-2.63,4.36-.6.66-1.31,1.31-2.21,1.7-.94.48-1.99.49-2.81.61-.24,1.23-1.04,2.69-1.94,3.69-1.76,2.01-4.19,3.39-6.84,3.78-.46.06-1.01.56-1.43,1.18-2.53,4.18-3.38,9.34-4.34,14.12-2.21,1.15-4.96.23-6.64-1.44l-.23-.18.08-.31,1.6-5.83c1.86-7.51,6.1-12.98,13.03-16.47.75-.41,1.78-1.06,2.46-1.57,4.52-3.21,7.62-7.95,9.88-12.97.15-.32.29-.65.43-.96l.87.21c-.03.15-.05.29-.08.44-1.26,6.53-5.84,12.07-11.36,15.59-3,1.7-6.11,3.35-8.48,5.88-4.17,4.23-5.46,10.05-7.36,15.59.8.36,1.64.69,2.47.89.86.22,1.68.29,2.56.36.75-4.85,1.46-9.8,3.99-14.13.56-.82,1.27-1.61,2.36-1.81.75-.13,1.48-.35,2.19-.66,2.37-1.07,4.6-3.06,5.24-5.65.13-.8.73-1.28,1.51-1.35,3.32.13,4.97-3.05,6.27-5.95,1.24-1.51,2.67-2.73,4.39-3.63,1.44-.74,3.13-1.13,4.74-.9.29.03.56.08.84.17Z"/>
          <path class="cls-1" d="m264.09,355.76c-3.14.26-6.26.87-8.97,2.67-.78.58-1.54,1.31-1.95,2.3-.34.83-.46,1.76-.79,2.61-1.17,3.22-3.14,6.26-5.57,8.69-1.3,1.3-2.49,2.06-4.32,2.62-3.29,1.47-5.95,3.76-8.57,6.12-2.78-1.89-4.03-3.81-2.52-7.04,3.58-.34,6.93-1.76,9.77-3.89,2.9-2.16,5.01-5.33,6.57-8.49,3.18-5.84,8.03-10.81,13.6-14.41.25,2.32.68,4.62,1.56,6.87.31.55.74,1.24,1.19,1.96Z"/>
          <path class="cls-2" d="m265.74,356.54c-.33.05-.69.1-1.06.16-3.86.57-10,1.71-10.57,5.75-1.45,4.82-4.39,9.39-8.6,12.26-.8.51-1.87.81-2.57,1.06-3.17,1.36-6.05,3.65-8.68,5.88l-.27.24-.29-.2c-3.59-2.34-4.94-4.75-2.93-8.82,5.24-.39,10.25-3.3,13.39-7.52,2.01-2.84,3.34-6.28,5.54-9.06,3.17-4.13,7.03-7.71,11.53-10.38.16-.1.32-.19.48-.29l.43.79c-.28.17-.55.34-.81.51h0c-5.58,3.61-10.42,8.57-13.6,14.41-1.57,3.16-3.67,6.34-6.57,8.49-2.84,2.13-6.19,3.56-9.77,3.89-1.51,3.23-.26,5.15,2.52,7.04,2.62-2.36,5.28-4.65,8.57-6.12,1.83-.55,3.02-1.32,4.32-2.62,2.42-2.42,4.39-5.47,5.57-8.69.33-.85.44-1.78.79-2.61.41-.99,1.17-1.72,1.95-2.3,2.72-1.79,5.83-2.41,8.97-2.67.54-.04,1.07-.08,1.61-.11l.04.9Z"/>
          <path class="cls-1" d="m277.6,266.21c-.18.19-.34.38-.49.58-2.52-3.33-5.33-6.42-7.93-9.61-1.89-2.52-4.38-5.19-4.09-8.48.22-1.13-.08-2.68-1.53-2.65-1.21,0-2.57.61-2.91-.94-.48-2.24-1.01-4.56-2.31-6.51-.65-1.02-1.59-1.81-2.1-2.62-.86-1.69-.71-4.32.03-6.05.83-1.88,3.07-2.27,4.92-1.85-.24,1.69-.39,3.38-.27,5.12.11.93.18,1.95,1.01,2.88.65.65,1.23,1.22,1.67,1.95,1.65,2.36.63,5.4,2.31,7.81,4.81,6.21,8.13,13.4,11.67,20.39Z"/>
          <path class="cls-2" d="m261.21,228.07c-1.85-.42-4.09-.03-4.92,1.85-.75,1.74-.9,4.36-.03,6.05.5.81,1.45,1.6,2.1,2.62,1.29,1.95,1.83,4.27,2.31,6.51.34,1.55,1.7.95,2.91.94,1.45-.03,1.74,1.52,1.53,2.65-.29,3.29,2.21,5.95,4.09,8.48,2.6,3.19,5.41,6.28,7.93,9.61.22.29.44.58.65.87l-.7.56c-.18-.22-.35-.43-.54-.64-4.22-4.96-9.2-9.44-12.11-15.42-.36-.84-.6-1.77-.6-2.69-.02-.59.23-1.78,0-2.11-.2-.18-.7-.05-1.04-.03-3.7.57-3.19-2.68-4.06-5.17-.59-2.31-2.03-3.77-3.43-5.61-.66-1.14-.72-2.43-.68-3.58-.03-4.63,3.13-7.05,7.6-5.56-.24,1.87-.4,3.83-.2,5.68.08.84.31,1.74.74,2.16,2.26,1.78,3.27,4.78,3.45,7.56.13,1.93,1.48,2.93,2.42,4.39,2.12,2.99,3.95,6.16,5.66,9.37,1.49,2.89,2.91,5.82,4.07,8.87.14.35.28.71.4,1.07l-.83.34c-.11-.21-.22-.43-.32-.64-3.54-6.99-6.86-14.18-11.67-20.39-1.69-2.41-.66-5.44-2.31-7.81-.44-.73-1.01-1.3-1.67-1.95-.82-.93-.9-1.95-1.01-2.88-.13-1.74.03-3.43.27-5.12Z"/>
          <path class="cls-2" d="m253.62,223.92c1.68-.18,3.49.56,4.37,2.05.29.48.84,2.05-.02,2.13-.16,0-.31-.08-.39-.21-.82-1.63-2.41-2.42-4.04-3.07-.47-.13-.41-.85.07-.9h0Z"/>
          <path class="cls-2" d="m231.46,378.92c.03,1.97-2.85,5.46-4.97,5.29-.25-.02-.43-.24-.41-.48.02-.22.18-.37.38-.42.39-.14.75-.46,1.1-.85.71-.8,1.32-1.75,1.89-2.67.3-.51,1.65-2.19,2.01-.87h0Z"/>
          <path class="cls-2" d="m230.02,361.91c0,2.27-2,4.21-4.15,4.6-.24.05-.48-.1-.53-.34-.05-.23.08-.45.3-.52,1.79-.63,2.78-2.23,3.5-3.87.18-.46.87-.36.89.14h0Z"/>
          <path class="cls-2" d="m419.97,238.74c-.65,5.14-3.52,9.36-5.23,14.17-3.79,10.27-9.13,17.67-16.92,22.6h0c-.38.25-.77.49-1.17.71-4.11,2.4-8.86,4.15-14.41,5.32-4.83,1.05-9.61,2.2-14.23,3.88-9.31,3.3-17.89,9.01-27.82,10.59-4.49.81-9.04,1.08-13.57,1.13-.45,0-.9,0-1.34,0v-.9c.55,0,1.09-.03,1.64-.03,4.39-.13,8.77-.46,13.06-1.31,9.87-1.73,18.19-7.5,27.5-10.94,4.68-1.79,9.55-3.04,14.4-4.15,16.23-3.56,25.32-12.18,30.9-27.7,1.53-4.54,4.4-8.85,4.98-13.68.3-2.3.15-4.73-.49-6.85-.28-.85-.97-1.53-1.81-1.81-5.9-1.18-12.09-1.64-18.14-1.82-3.61-.06-7.41-.11-10.99.2-5.95.84-11.32,3.86-16.45,7.08-12.35,8.05-23.21,18.37-33.7,28.75-3.39,3.68-8.27,7.27-13.56,6.05-.08,0-.16-.03-.23-.05l.08-.44.08-.44c4.83-.45,8.58-3.58,11.83-6.95,10.66-10.49,21.55-20.8,34.19-28.99,5.29-3.31,11.11-6.55,17.5-7.4,8.8-.59,17.56-.15,26.29,1.09,1.18.23,2.6.34,3.86.71,4.39,1.57,4.15,7.4,3.78,11.16Z"/>
          <path class="cls-2" d="m416.65,296.41c-3.58,1.47-7.3,2.04-10.88,3.29-4.66,1.53-9.13,3.57-13.27,6.18-14.4,9.86-30.59,21.85-48.23,17.72-.4-.09-.81-.2-1.22-.31-2.12-.59-4.28-1.41-6.44-2.51-1.47-.9-3.14-1.68-4.78-2.27-1.26-.46-2.97-.75-4.48-.94-.43-.05-.84-.1-1.22-.13l-.13-.89c.14-.05.29-.09.44-.13,3.57-.94,8.59.86,11.1,2.35,17.25,8.34,33.06-1.22,47.31-10.86,6.16-4.42,12.87-8.35,20.18-10.48,2.43-.75,4.9-1.34,7.3-1.95,1.64-.46,3.43-.76,4.64-1.81.29-.29.41-.57.44-.98-.6-4.51-4.41-8.37-8.08-10.92-3.82-2.56-8.21-4.38-12.71-5.54-.25-.07-.51-.13-.77-.19l.15-.88c.6.11,1.19.23,1.79.36h0c8.13,1.79,16.37,5.69,20.5,13.21,1.62,2.86,2.06,6.17-1.66,7.69Z"/>
          <path class="cls-2" d="m327.47,305.78c5.49-.77,10.98-1.39,16.4-2.2,3.98-.65,8.09-1.2,11.79-2.72,6.21-3.06,12.49-6.03,18.96-8.52,2.59-1.01,5.22-1.97,7.91-2.74,2.78-.7,5.49-1.68,8.45-1.13,0,0-.22.87-.22.87-2.56-.25-5.32.83-7.79,1.63-9.09,3.29-17.74,7.71-26.36,12.04-3.98,1.66-8.22,2.31-12.42,2.9-5.55.69-11.11.98-16.69.76l-.04-.9h0Z"/>
          <path class="cls-2" d="m360.63,299c4.43.87,8.68,2.52,13.12,3.25,1.43.22,2.95.42,4.2.02l.41.8c-2.94,1.46-6.37.58-9.41,0-3.01-.72-5.95-1.67-8.65-3.23,0,0,.33-.84.33-.84h0Z"/>
          <path class="cls-2" d="m325.47,282.55c7.34-5.34,15.54-9.37,24.1-12.33,2.78-1,5.8-1.69,8.54-2.65,5.52-1.99,10.1-5.82,14.08-10.1,3.67-3.7,6.51-8.57,11.16-11.25.73-.34,1.52-.59,2.34-.64l.07.9c-2.83.48-4.78,3.08-6.58,5.19-1.87,2.3-3.7,4.69-5.69,6.98-3.91,4.6-8.84,8.63-14.66,10.84-2.97,1.1-5.8,1.67-8.62,2.64-5.63,1.88-11.12,4.17-16.42,6.85-2.66,1.33-5.28,2.76-7.8,4.3l-.52-.73h0Z"/>
          <path class="cls-2" d="m344.01,272.89c1.47-1.98,2.89-4,3.86-6.24,1.47-4.5,3.67-8.36,8.84-9.04,0,0,.24.86.24.86-1.53.66-2.96,1.42-4,2.54-2.31,2.35-2.62,6.12-4.65,8.76-1.04,1.44-2.24,2.72-3.67,3.77l-.61-.66h0Z"/>
          <path class="cls-2" d="m370.85,259.85c2.12.08,5.05.72,7.15,1.1,2.17.29,4.64,1.04,6.75.41,0,0,.56.7.56.7-1.18.91-2.52.86-3.87.92-2.5-.03-4.94-.42-7.35-1.01-1.19-.32-2.36-.7-3.48-1.26l.23-.87h0Z"/>
          <path class="cls-1" d="m370.26,360.34c-1.58.75-3.28,1.15-5.02,1.26-.43-3.18-1.04-6.31-1.95-9.42-.66-1.99-1.35-4.23-2.96-5.79-.92-.91-2.5-.8-3.64-1.4-2.07-.93-3.96-2.54-4.9-4.62-.29-.56-.3-1.2-.62-1.74-.3-.4-.77-.58-1.23-.64-3.38.13-4.96-3.13-6.32-6-2.19-2.65-5.55-4.96-9.08-4.47-2.21-3.45-4.66-6.72-7.17-9.95,1.51.18,3.22.48,4.48.94,1.64.6,3.31,1.38,4.78,2.27,2.16,1.1,4.32,1.92,6.44,2.51.73,3.97,2.79,7.54,5.43,10.55,2.65,3.19,6.3,5.32,9.85,7.3,3.34,2.04,6.16,4.83,7.92,8.34,1.74,3.37,2.73,7.17,4,10.87Z"/>
          <path class="cls-2" d="m371.33,360.75c-.93.85-1.92,1.57-3.15,1.89-1.22.39-2.58.34-3.72-.27-.6-3.3-1.32-6.62-2.37-9.79-.74-1.86-1.5-4.8-3.4-5.51-2.65-.39-5.08-1.77-6.84-3.78-.9-1-1.69-2.46-1.94-3.69-.82-.12-1.87-.13-2.81-.61-.9-.39-1.6-1.04-2.21-1.7-1.17-1.33-1.95-2.83-2.63-4.36-1.78-2.1-4.24-4.08-7.04-4.35-.44-.04-.88-.04-1.32,0l-.18-.88c.29-.08.56-.13.84-.17,3.53-.49,6.89,1.82,9.08,4.47,1.36,2.88,2.94,6.14,6.32,6,.46.06.93.23,1.23.64.32.55.34,1.18.62,1.74.94,2.08,2.83,3.69,4.9,4.62,1.14.6,2.72.49,3.64,1.4,1.61,1.57,2.3,3.81,2.96,5.79.91,3.1,1.53,6.24,1.95,9.42,1.74-.11,3.44-.5,5.02-1.26-1.27-3.7-2.26-7.5-4-10.87-1.76-3.51-4.58-6.3-7.92-8.34-3.56-1.99-7.2-4.12-9.85-7.3-2.64-3.01-4.7-6.58-5.43-10.55-.03-.14-.06-.29-.08-.44l.88-.21c.13.32.28.65.42.96,2.45,5.47,5.96,10.57,11.09,13.79,1.25.77,2.64,1.5,3.9,2.3,3.51,2.19,6.52,5.38,8.28,9.15,1.64,3.24,2.7,8.13,3.71,11.6l.08.31Z"/>
          <path class="cls-1" d="m363.98,380.75c-2.62-2.36-5.28-4.65-8.57-6.12-1.83-.55-3.02-1.32-4.32-2.62-3.19-3.17-5.24-6.98-6.35-11.3-1.91-3.68-6.92-4.6-10.94-4.95.45-.73.89-1.43,1.2-1.98.89-2.26,1.31-4.55,1.56-6.88,2.66,1.69,5.14,3.76,7.36,6.02,2.43,2.52,4.6,5.31,6.24,8.39,1.58,3.16,3.67,6.34,6.57,8.49,2.84,2.13,6.19,3.56,9.77,3.89,1.52,3.25.25,5.14-2.52,7.04Z"/>
          <path class="cls-2" d="m363.9,381.89c-2.7-2.34-5.68-4.71-8.94-6.12-5.4-1.44-9.67-8.18-11.17-13.32-.19-1.21-.75-2.19-1.8-2.93-2.5-1.71-5.72-2.4-8.76-2.83-.36-.06-.71-.11-1.06-.15l.04-.9c.51.03,1.05.07,1.6.13,4.03.34,9.03,1.27,10.94,4.95,1.11,4.32,3.16,8.13,6.35,11.3,1.3,1.3,2.49,2.06,4.32,2.62,3.29,1.47,5.95,3.76,8.57,6.12,2.78-1.9,4.04-3.79,2.52-7.04-3.58-.34-6.93-1.76-9.77-3.89-2.9-2.16-5-5.33-6.57-8.49-1.64-3.09-3.81-5.88-6.24-8.39-2.22-2.26-4.7-4.33-7.36-6.02-.27-.18-.54-.34-.81-.51l.43-.79c.16.09.32.18.48.29,4.5,2.68,8.36,6.25,11.54,10.38,3.19,4.19,4.74,9.6,9.16,12.75,2.73,2.07,6.08,3.51,9.47,3.81l.3.03s.1.25.1.25c2.03,4.09.18,6.54-3.32,8.77Z"/>
          <path class="cls-1" d="m341.65,235.98c-.5.81-1.45,1.6-2.09,2.62-.99,1.5-1.53,3.17-1.95,4.88-.19.63-.32,2.34-1.01,2.58-.29.15-.78.13-1.33.06-1.96-.4-2.77.69-2.46,2.57.29,3.28-2.21,5.95-4.09,8.48-2.6,3.19-5.4,6.28-7.92,9.61-.16-.2-.33-.39-.49-.59,1.51-3,2.99-6.02,4.56-8.99,1.68-3.18,3.46-6.31,5.52-9.24,1.07-1.52,2.57-3.1,2.6-5.01.18-2.67.86-5.12,2.97-6.89.82-.93.9-1.95,1.01-2.88.13-1.74-.03-3.43-.27-5.12,1.85-.42,4.09-.03,4.92,1.85.75,1.74.9,4.36.03,6.05Z"/>
          <path class="cls-2" d="m342.62,236.55c-.63,1.03-1.49,1.7-2.1,2.68-.87,1.34-1.38,2.95-1.74,4.52-.28,1.13-.39,2.84-1.64,3.4-1.03.46-1.84.11-2.74.12-.22.02-.27.06-.29.09-.23.34.02,1.53,0,2.11,0,.92-.24,1.85-.6,2.69-2.91,5.97-7.88,10.45-12.1,15.41-.18.21-.37.43-.55.65l-.7-.56c.22-.29.44-.59.66-.87,2.52-3.33,5.32-6.42,7.92-9.61,1.89-2.52,4.38-5.2,4.09-8.48-.31-1.89.49-2.98,2.46-2.57.55.07,1.04.09,1.33-.06.7-.24.82-1.95,1.01-2.58.41-1.71.96-3.38,1.95-4.88.64-1.02,1.58-1.81,2.09-2.62.86-1.69.71-4.32-.03-6.05-.83-1.88-3.07-2.27-4.92-1.85.24,1.69.39,3.38.27,5.12-.11.93-.18,1.95-1.01,2.88-2.11,1.77-2.79,4.23-2.97,6.89-.03,1.9-1.53,3.49-2.6,5.01-2.05,2.93-3.84,6.06-5.52,9.24-1.58,2.97-3.05,5.99-4.56,8.99-.11.22-.22.43-.33.65l-.83-.34c.13-.35.27-.7.42-1.06,2.85-7.28,6.59-14.24,11.36-20.46,1-1.31.75-3.3,1.22-4.93.39-1.86,1.59-3.61,3-4.81.43-.41.65-1.32.75-2.16.19-1.84.03-3.81-.21-5.68,2.41-.87,5.65-.5,6.83,2.05.96,2.2,1.17,4.87.08,7.09Z"/>
          <path class="cls-2" d="m344.35,224.82c-1.6.64-3.17,1.4-4,3-.19.45-.89.3-.88-.18-.07-1.79,1.52-3.25,3.17-3.61.53-.09,2.05-.47,2.04.4-.02.19-.16.33-.33.39h0Z"/>
          <path class="cls-2" d="m367.25,378.53c1.79,1.25,2.23,3.94,4.28,4.82.45.14.35.85-.11.87-2.11.17-5-3.32-4.97-5.29,0-.4.49-.63.81-.4h0Z"/>
          <path class="cls-2" d="m368.77,361.77c.6,1.18,1.15,2.48,2.31,3.22.37.27.8.47,1.24.66.49.2.23.97-.28.85-1.65-.28-3.08-1.46-3.8-2.97-.2-.5-.79-1.98.12-2.07.2,0,.34.14.41.3h0Z"/>
          <path class="cls-2" d="m288.08,231.06c-1.97,1.6-3.66,3.55-4.8,5.96-.42,1.07-.77,2.18-1.06,3.31-.94-.14-1.59-.44-1.93-.91-.39-.54-.23-1.17-.19-1.32,1.27-2.67,3.79-7.1,5.2-7.81,1.03-.51,2.11.18,2.78.76Z"/>
          <path class="cls-2" d="m317.6,239.43c-.33.46-.98.76-1.93.91-.29-1.13-.64-2.24-1.06-3.31-1.12-2.42-2.81-4.35-4.79-5.95.65-.59,1.74-1.28,2.77-.77,1.41.7,3.92,5.14,5.2,7.81.04.15.19.79-.19,1.32Z"/>
          <path class="cls-2" d="m297.08,227.35c-.28,0-.54-.19-.61-.48-1.33-5.57-5.19-9.42-10.33-10.31-5.16-.89-8.16-4.48-8.29-4.63-.22-.27-.18-.66.09-.88.27-.22.66-.18.89.08.03.03,2.85,3.39,7.53,4.19,5.65.97,9.89,5.18,11.34,11.26.08.34-.13.68-.47.76-.05.01-.1.02-.15.02Z"/>
          <path class="cls-2" d="m300.83,227.35s-.1,0-.15-.02c-.34-.08-.55-.42-.47-.76,1.45-6.07,5.69-10.28,11.34-11.26,4.68-.81,7.5-4.16,7.53-4.19.22-.27.62-.31.88-.08.27.22.31.62.09.88-.13.15-3.13,3.74-8.29,4.63-5.14.89-9,4.74-10.33,10.31-.07.29-.33.48-.61.48Z"/>
        </g>
      </g>
      <rect class="cls-4" x="-1.06" y="1.06" width="600" height="597.89" transform="translate(598.94 1.06) rotate(90)"/>
    </g>
  </g>
</svg>